<svg width="378" height="441" viewBox="0 0 378 441" fill="none" xmlns="http://www.w3.org/2000/svg">
<g clip-path="url(#clip0_9553_43451)">
<path d="M378 440.5H0L154.468 56.116H223.532L378 440.5Z" fill="#D0F0E4"/>
<path d="M182.366 28.7196L188.913 22.2312L195.461 28.7196" stroke="#FFCF2D" stroke-width="1.06272" stroke-miterlimit="10"/>
<path d="M188.914 22.2311V0.5" stroke="#FFCF2D" stroke-width="1.06272" stroke-miterlimit="10"/>
<path d="M188.914 67.3853C194.736 67.3853 199.455 62.7083 199.455 56.939C199.455 51.1697 194.736 46.4928 188.914 46.4928C183.093 46.4928 178.374 51.1697 178.374 56.939C178.374 62.7083 183.093 67.3853 188.914 67.3853Z" fill="#FFCF2D" stroke="white" stroke-width="1.06272" stroke-miterlimit="10"/>
<path d="M223.43 56.0563H154.412L155.332 51.8926C158.361 38.18 172.479 28.234 188.928 28.234C197.153 28.234 204.798 30.7205 210.752 34.9137C216.72 39.1069 220.995 45.0216 222.51 51.8778L223.43 56.0563Z" stroke="#9A3B82" stroke-width="1.06272" stroke-miterlimit="10" stroke-linecap="round"/>
<path d="M237.78 313.319H231.499V356.544H237.78V313.319Z" fill="#66B0F0"/>
<path d="M351.846 356.544H316.086C314.795 356.544 313.797 355.326 313.957 353.933L318.934 308.141C319.067 306.966 319.986 306.081 321.064 306.081H356.823C358.114 306.081 359.112 307.3 358.952 308.692L353.975 354.485C353.842 355.66 352.924 356.544 351.846 356.544Z" fill="#9A3B82"/>
<path d="M332.361 356.544H304.121C302.391 356.544 301.047 354.891 301.246 353.02L304.866 319.672C305.039 318.091 306.277 316.887 307.741 316.887H336.66L332.361 356.544Z" fill="white" stroke="#FFCF2D" stroke-width="1.2068" stroke-miterlimit="10"/>
<path d="M335.529 356.544H308.58C306.85 356.544 305.506 354.891 305.705 353.02L309.325 319.672C309.498 318.091 310.736 316.887 312.2 316.887H339.495C340.36 316.887 341.039 317.714 340.933 318.657L336.967 355.137C336.887 355.95 336.261 356.544 335.529 356.544Z" fill="white" stroke="#FFCF2D" stroke-width="1.2068" stroke-miterlimit="10"/>
<path d="M249.078 319.817H238.178V356.544H249.078V319.817Z" stroke="#9A3B82" stroke-width="1.2068" stroke-miterlimit="10" stroke-linecap="round"/>
<path d="M260.63 319.817H245.285V356.544H260.63V319.817Z" stroke="#9A3B82" stroke-width="1.2068" stroke-miterlimit="10" stroke-linecap="round"/>
<path d="M279.223 356.544H274.977L259.18 315.785H263.426L279.223 356.544Z" stroke="#9A3B82" stroke-width="1.2068" stroke-miterlimit="10" stroke-linecap="round"/>
<path d="M287.314 356.544H279.409L265.808 321.979H273.713L287.314 356.544Z" stroke="#9A3B82" stroke-width="1.2068" stroke-miterlimit="10" stroke-linecap="round"/>
<path d="M231.099 319.817H220.106V356.544H231.099V319.817Z" stroke="#9A3B82" stroke-width="1.2068" stroke-miterlimit="10" stroke-linecap="round"/>
<path d="M271.236 291.663H220.106V298.829H271.236V291.663Z" stroke="#9A3B82" stroke-width="1.2068" stroke-miterlimit="10" stroke-linecap="round"/>
<path d="M284.877 286.18H220.106V291.953H284.877V286.18Z" fill="#FE5244"/>
<path d="M263.824 277.854H220.106V286.035H263.824V277.854Z" fill="#FFCF2D"/>
<path d="M271.236 271.603H220.106V277.709H271.236V271.603Z" stroke="#9A3B82" stroke-width="1.2068" stroke-miterlimit="10" stroke-linecap="round"/>
<path d="M359.46 255.502L359.42 255.749L353.378 298.829H297.323L303.365 255.749L303.445 255.139C304.403 253.022 310.259 251.383 317.352 251.383C325.111 251.383 331.393 253.341 331.393 255.749C331.393 253.341 337.674 251.383 345.433 251.383C352.925 251.397 359.034 253.21 359.46 255.502Z" fill="white" stroke="#FFCF2D" stroke-width="1.2068" stroke-miterlimit="10"/>
<path d="M325.417 298.843L331.406 255.763" stroke="#FFCF2D" stroke-width="1.2068" stroke-miterlimit="10"/>
<path d="M325.417 298.843C325.417 296.435 319.136 294.477 311.377 294.477C303.618 294.477 297.337 296.435 297.337 298.843H325.417Z" fill="#FFCF2D"/>
<path d="M353.498 298.843C353.498 296.435 347.216 294.477 339.458 294.477C331.699 294.477 325.417 296.435 325.417 298.843H353.498Z" fill="#FFCF2D"/>
<path d="M325.63 297.929C325.55 295.522 331.765 293.331 339.524 293.027C344.368 292.838 349.146 293.578 351.661 294.637L357.65 253.602" stroke="#FFCF2D" stroke-width="1.2068" stroke-miterlimit="10" stroke-linecap="round"/>
<path d="M354.987 241.127H304.655V228.914C304.655 227.71 305.546 226.738 306.651 226.738H353.004C354.108 226.738 355 227.71 355 228.914V241.127H354.987Z" fill="white" stroke="#9A3B82" stroke-width="1.2068" stroke-miterlimit="10" stroke-linecap="round"/>
<path d="M359.005 226.158H315.633C314.954 226.158 314.422 225.563 314.422 224.838V219.979C314.422 219.239 314.968 218.659 315.633 218.659H359.005C359.684 218.659 360.216 219.254 360.216 219.979V224.838C360.216 225.563 359.67 226.158 359.005 226.158Z" fill="#FFCF2D"/>
<path d="M360.697 214.104H309.247V218.659H360.697V214.104Z" fill="#FE5244"/>
<path d="M359.765 214.104H320.492C319.973 214.104 319.56 213.64 319.56 213.089V209.419C319.56 208.853 319.986 208.404 320.492 208.404H359.765C360.284 208.404 360.696 208.868 360.696 209.419V213.089C360.696 213.64 360.284 214.104 359.765 214.104Z" fill="white" stroke="#9A3B82" stroke-width="1.2068" stroke-miterlimit="10" stroke-linecap="round"/>
<path d="M251.727 196.321H236.622V241.127H251.727V196.321Z" stroke="#9A3B82" stroke-width="1.2068" stroke-miterlimit="10" stroke-linecap="round"/>
<path d="M236.622 196.321H230.526V241.127H236.622V196.321Z" fill="white" stroke="#9A3B82" stroke-width="1.2068" stroke-miterlimit="10" stroke-linecap="round"/>
<path d="M230.527 196.321H220.28V241.127H230.527V196.321Z" fill="white" stroke="#9A3B82" stroke-width="1.2068" stroke-miterlimit="10" stroke-linecap="round"/>
<path d="M266.965 204.415H253.723V241.142H266.965V204.415Z" stroke="#9A3B82" stroke-width="1.2068" stroke-miterlimit="10" stroke-linecap="round"/>
<path d="M254.682 241.127H249.466C248.96 241.127 248.534 240.678 248.534 240.112V205.401C248.534 204.85 248.946 204.386 249.466 204.386H254.682C255.188 204.386 255.614 204.836 255.614 205.401V240.112C255.601 240.678 255.188 241.127 254.682 241.127Z" fill="white" stroke="#9A3B82" stroke-width="1.2068" stroke-miterlimit="10" stroke-linecap="round"/>
<path d="M266.967 204.415V224.548L259.793 204.415H266.967Z" fill="#9A3B82"/>
<path d="M297.627 241.127H276.44C275.974 241.127 275.548 240.808 275.388 240.344L261.627 201.732C261.335 200.919 261.88 200.049 262.679 200.049H283.866C284.331 200.049 284.757 200.368 284.917 200.832L298.678 239.445C298.971 240.257 298.425 241.127 297.627 241.127Z" fill="white" stroke="#FFCF2D" stroke-width="1.2068" stroke-miterlimit="10"/>
<path d="M301.089 241.127H279.902C279.436 241.127 279.01 240.808 278.851 240.344L265.09 201.732C264.797 200.919 265.343 200.049 266.141 200.049H287.328C287.794 200.049 288.22 200.368 288.379 200.832L302.14 239.445C302.433 240.257 301.887 241.127 301.089 241.127Z" fill="white" stroke="#FFCF2D" stroke-width="1.2068" stroke-miterlimit="10"/>
<path d="M338.299 173.621C336.316 174.23 334.214 174.564 332.058 174.564C319.455 174.564 309.247 163.438 309.247 149.702C309.247 138.373 316.208 128.8 325.723 125.812L338.299 173.621Z" stroke="#FFCF2D" stroke-width="1.2068" stroke-miterlimit="10"/>
<path d="M332.058 174.564V183.426" stroke="#FFCF2D" stroke-width="1.2068" stroke-miterlimit="10"/>
<path d="M332.058 170.763C342.73 170.763 351.382 161.334 351.382 149.702C351.382 138.07 342.73 128.641 332.058 128.641C321.386 128.641 312.734 138.07 312.734 149.702C312.734 161.334 321.386 170.763 332.058 170.763Z" fill="white" stroke="#3FB1B5" stroke-width="1.2068" stroke-miterlimit="10"/>
<path d="M340.136 183.368H324.046L332.031 179.002L340.136 183.368Z" fill="white" stroke="#FFCF2D" stroke-width="1.2068" stroke-miterlimit="10"/>
<path d="M360.699 183.426V440.5H353.419V421.788C353.419 417.625 350.318 414.246 346.499 414.246H234.23C230.41 414.246 227.309 417.625 227.309 421.788V440.5H220.11V183.426H360.699Z" stroke="#9A3B82" stroke-width="1.2068" stroke-miterlimit="10" stroke-linecap="round"/>
<path d="M350.597 407.124H229.943C228.413 407.124 227.162 405.775 227.162 404.092V366.248C227.162 364.58 228.4 363.217 229.943 363.217H350.597C352.127 363.217 353.378 364.566 353.378 366.248V404.092C353.378 405.775 352.127 407.124 350.597 407.124Z" stroke="#3FB1B5" stroke-width="1.2068" stroke-miterlimit="10"/>
<path d="M296.631 148.121V183.426H285.292L296.631 148.121Z" fill="#9A3B82"/>
<path d="M296.632 148.121L296.552 148.382L285.36 183.426H233.324L244.517 148.382L244.876 147.265C246.553 144.64 251.197 142.725 256.734 142.623C256.827 142.623 256.907 142.623 257 142.623C257.093 142.623 257.173 142.623 257.266 142.623C263.734 142.623 269.496 145.075 270.548 148.295C271.586 145.075 277.095 142.623 283.563 142.623C289.898 142.623 295.447 144.988 296.632 148.121Z" fill="white" stroke="#FFCF2D" stroke-width="1.2068" stroke-miterlimit="10"/>
<path d="M270.535 148.295L259.236 182.701" stroke="#FFCF2D" stroke-width="1.2068" stroke-miterlimit="10" stroke-linecap="round"/>
<path d="M259.209 182.991H233.324C234.282 179.727 239.659 177.218 246.127 177.218C252.621 177.218 258.251 179.727 259.209 182.991Z" fill="#FFCF2D"/>
<path d="M285.293 182.991H259.408C260.366 179.727 265.743 177.218 272.211 177.218C278.705 177.218 284.335 179.727 285.293 182.991Z" fill="#FFCF2D"/>
<path d="M281.607 374.43C281.607 373.298 282.445 372.37 283.496 372.37H297.617C298.655 372.37 299.506 373.284 299.506 374.43" stroke="#9A3B82" stroke-width="1.2068" stroke-miterlimit="10" stroke-linecap="round"/>
<path d="M220.11 298.843H360.699" stroke="#9A3B82" stroke-width="1.2068" stroke-miterlimit="10" stroke-linecap="round"/>
<path d="M220.11 241.127H360.699" stroke="#9A3B82" stroke-width="1.2068" stroke-miterlimit="10" stroke-linecap="round"/>
<path d="M220.11 356.544H360.699" stroke="#9A3B82" stroke-width="1.2068" stroke-miterlimit="10" stroke-linecap="round"/>
<path d="M237.41 129.525L220.11 183.426H360.699L378 129.525" stroke="#9A3B82" stroke-width="1.2068" stroke-miterlimit="10" stroke-linecap="round" stroke-linejoin="round"/>
<path d="M110.43 421.624V437.417C110.43 439.057 111.743 440.378 113.375 440.378H152.635C152.635 440.378 152.866 433.048 146.891 431.001C136.743 427.532 132.009 421.624 132.009 421.624H110.43Z" fill="white" stroke="#FE5244" stroke-width="1.23526" stroke-miterlimit="10"/>
<path d="M132.268 429.709C133.87 429.259 139.644 426.051 137.667 424.063C136.728 423.119 134.477 424.063 134.477 424.063" stroke="#FE5244" stroke-width="1.23526" stroke-miterlimit="10"/>
<path d="M138.187 431.886C139.789 431.436 145.332 427.851 143.152 426.095C141.507 424.759 139.039 427.343 139.039 427.343" stroke="#FE5244" stroke-width="1.23526" stroke-miterlimit="10"/>
<path d="M133.221 422.902L110.43 430.028V421.624H132.023C132.023 421.624 132.413 422.118 133.221 422.902Z" fill="#FE5244"/>
<path d="M159.651 421.624V437.417C159.651 439.057 160.965 440.378 162.596 440.378H201.857C201.857 440.378 202.087 433.048 196.112 431.001C185.965 427.532 181.23 421.624 181.23 421.624H159.651Z" fill="white" stroke="#FE5244" stroke-width="1.23526" stroke-miterlimit="10"/>
<path d="M181.49 429.709C183.092 429.259 188.865 426.051 186.888 424.063C185.95 423.119 183.698 424.063 183.698 424.063" stroke="#FE5244" stroke-width="1.23526" stroke-miterlimit="10"/>
<path d="M187.408 431.886C189.01 431.436 194.553 427.851 192.374 426.095C190.728 424.759 188.26 427.343 188.26 427.343" stroke="#FE5244" stroke-width="1.23526" stroke-miterlimit="10"/>
<path d="M182.443 422.902L159.651 430.028V421.624H181.245C181.245 421.624 181.634 422.118 182.443 422.902Z" fill="#FE5244"/>
<path d="M121.038 264.427L106.821 414.105H136.555L151.494 341.574L157.6 357.032V414.105H188.561V350.109L172.049 264.427H121.038Z" fill="#3FB1B5"/>
<path d="M136.525 300.38L122.697 414.105" stroke="#9A3B82" stroke-width="1.23526" stroke-miterlimit="10"/>
<path d="M172.538 414.105V350.109L153.139 271.684" stroke="#9A3B82" stroke-width="1.23526" stroke-miterlimit="10"/>
<path d="M157.167 357.033L138.634 302.906C137.999 301.048 136.252 299.8 134.289 299.8" stroke="white" stroke-width="1.23526" stroke-miterlimit="10"/>
<path d="M118.687 289.175L121.04 264.427H172.05L173.508 272.033L118.687 289.175Z" fill="#9A3B82"/>
<path d="M188.619 421.624H157.484C156.315 421.624 155.362 420.666 155.362 419.491V416.239C155.362 415.063 156.315 414.105 157.484 414.105H188.619C189.788 414.105 190.74 415.063 190.74 416.239V419.491C190.726 420.666 189.788 421.624 188.619 421.624Z" fill="#9A3B82"/>
<path d="M137.09 421.624H105.955C104.786 421.624 103.833 420.666 103.833 419.491V416.239C103.833 415.063 104.786 414.105 105.955 414.105H137.09C138.259 414.105 139.212 415.063 139.212 416.239V419.491C139.197 420.666 138.259 421.624 137.09 421.624Z" fill="#9A3B82"/>
<path d="M220.189 268.81L229.947 305.519L181.304 318.597L171.532 281.859C171.229 280.713 170.493 279.813 169.554 279.261C168.616 278.71 167.461 278.521 166.321 278.826C164.055 279.435 162.698 281.787 163.304 284.066L173.076 320.803L172.008 321.093L162.251 284.385C161.471 281.467 163.146 278.477 166.004 277.607C166.061 277.592 166.119 277.577 166.177 277.563L213.405 264.862C216.364 264.079 219.395 265.849 220.189 268.81Z" fill="#66B0F0"/>
<path d="M172.614 281.613L182.372 318.321L181.304 318.611L171.532 281.874C171.229 280.727 170.493 279.827 169.554 279.276C168.616 278.724 167.461 278.535 166.321 278.84C164.055 279.45 162.698 281.801 163.304 284.08L173.076 320.818L172.008 321.108L162.251 284.4C161.471 281.482 163.146 278.492 166.004 277.621C168.905 276.939 171.835 278.695 172.614 281.613Z" fill="#9A3B82"/>
<path d="M171.53 281.859L180.696 316.347L172.469 318.553L163.303 284.066C162.697 281.787 164.039 279.435 166.32 278.826C167.46 278.521 168.615 278.71 169.553 279.261C170.491 279.813 171.227 280.713 171.53 281.859Z" fill="white"/>
<path d="M220.332 288.26L198.205 295.924L180.74 264.427H113.044C101.54 264.427 92.937 253.787 95.2897 242.466L102.334 208.442C104.542 197.788 113.881 190.154 124.692 190.154H170.982C182.198 190.154 191.753 198.34 193.528 209.473L200.5 242.596L220.332 288.26Z" fill="#FFCF2D" stroke="white" stroke-width="1.23526" stroke-miterlimit="10"/>
<path d="M109.434 264.064C101.467 262.453 95.5486 255.631 94.9424 247.589C95.5486 247.168 96.227 246.806 96.9487 246.544C102.188 244.599 108.178 247.793 110.358 253.671C111.7 257.358 111.239 261.219 109.434 264.064Z" fill="white"/>
<path d="M159.84 169.746V190.168H137.424L142.591 176.582L159.84 169.746Z" fill="#E57281"/>
<path d="M164.995 161.153C164.981 161.153 164.952 161.167 164.937 161.167L158.283 162.938C155.901 163.577 154.068 165.347 153.289 167.583H150.734C149.117 167.583 147.804 168.904 147.804 170.529V170.573C147.804 172.111 148.973 173.374 150.474 173.505C150.46 173.519 150.46 173.519 150.46 173.519C150.46 173.519 149.276 179.18 142.362 177.279C142.362 177.279 142.637 162.386 142.925 157.756C143.171 153.939 163.306 146.71 165.168 149.787C166.814 152.516 164.908 153.794 163.292 154.36C166.15 153.75 171.548 152.937 172.097 155.361C172.732 158.177 167.03 160.616 164.995 161.153Z" fill="#9A3B82"/>
<path d="M166.294 171.589H165.586L165.788 175.073C165.933 177.569 163.941 179.688 161.458 179.688H158.34C155.338 179.688 152.899 177.235 152.899 174.216V173.534H150.748C149.131 173.534 147.818 172.213 147.818 170.587V170.544C147.818 168.918 149.131 167.597 150.748 167.597H153.303C154.082 165.362 155.915 163.577 158.297 162.953L164.951 161.182L167.232 170.37C167.463 170.95 166.914 171.589 166.294 171.589Z" fill="#E57281"/>
<path d="M153.577 174.492C153.274 177.685 156.449 179.964 159.452 179.964" stroke="#9A3B82" stroke-width="1.02938" stroke-miterlimit="10" stroke-linecap="round"/>
<path d="M152.407 171.082C152.407 169.949 151.498 169.034 150.372 169.034" stroke="#9A3B82" stroke-width="1.02938" stroke-miterlimit="10" stroke-linecap="round"/>
<path d="M163.839 169.006C164.133 169.006 164.372 168.506 164.372 167.888C164.372 167.271 164.133 166.77 163.839 166.77C163.544 166.77 163.305 167.271 163.305 167.888C163.305 168.506 163.544 169.006 163.839 169.006Z" fill="#9A3B82"/>
<path d="M161.529 165.537C161.529 165.537 163.304 164.172 165.844 164.172" stroke="#9A3B82" stroke-width="1.02938" stroke-miterlimit="10" stroke-linecap="round"/>
<path d="M154.658 273.731C154.658 273.731 172.34 274.5 178.561 260.232L175.27 254.179L165.44 257.982L154.658 273.731Z" fill="white" stroke="#FE5244" stroke-width="1.23526" stroke-miterlimit="10"/>
<path d="M168.816 186.423C167.965 186.496 167.185 186.873 166.608 187.454C165.973 188.093 165.568 188.978 165.568 189.965V261.48C165.568 268.302 160.069 273.833 153.285 273.833H126.019C118.686 273.833 113.028 267.432 113.808 260.16V260.145L123.623 192.258C124.114 188.905 126.957 186.423 130.335 186.423H168.816Z" fill="#FE5244" stroke="#FE5244" stroke-width="1.23526" stroke-miterlimit="10"/>
<path d="M166.074 186.423C165.222 186.496 164.443 186.873 163.865 187.454C163.331 187.991 162.97 188.688 162.869 189.472C162.855 189.631 162.84 189.791 162.84 189.951L162.263 195.423L155.335 261.466C155.335 268.288 149.835 273.818 143.051 273.818H126.033C118.701 273.818 113.043 267.417 113.822 260.145V260.131L118.253 229.446L123.637 192.244C123.681 191.925 123.753 191.605 123.839 191.286C124.677 188.426 127.304 186.409 130.335 186.409H166.074V186.423Z" fill="white" stroke="#FE5244" stroke-width="1.23526" stroke-miterlimit="10"/>
<path d="M159.997 200.663L157.413 220.156C156.561 224.148 153.473 226.282 148.998 227.007L118.398 231.478L122.858 200.648H159.997V200.663Z" fill="#FFCF2D"/>
<path d="M164.977 186.423H164.212C162.826 186.409 161.614 187.396 161.34 188.775L156.836 217.993C155.984 221.985 152.477 224.845 148.421 224.845H120.26C116.854 224.845 114.313 221.68 115.049 218.327L120.477 193.536C121.386 189.384 125.052 186.423 129.281 186.423H164.977Z" fill="#FE5244" stroke="#FE5244" stroke-width="1.23526" stroke-miterlimit="10"/>
<path d="M141.765 232.973L148.939 188.862C149.083 187.977 149.848 187.309 150.743 187.309C151.869 187.309 152.735 188.325 152.547 189.457L145.374 233.568C145.229 234.454 144.464 235.121 143.569 235.121C142.444 235.121 141.578 234.105 141.765 232.973Z" fill="white" stroke="#FE5244" stroke-width="1.23526" stroke-miterlimit="10"/>
<path d="M125.73 232.973L132.904 188.862C133.048 187.977 133.813 187.309 134.708 187.309C135.834 187.309 136.7 188.325 136.513 189.457L129.339 233.568C129.194 234.454 128.429 235.121 127.535 235.121C126.409 235.121 125.543 234.105 125.73 232.973Z" fill="white" stroke="#FE5244" stroke-width="1.23526" stroke-miterlimit="10"/>
<path d="M172.642 190.183L165.584 190.212V189.965C165.584 188.978 165.973 188.093 166.623 187.454C167.2 186.873 167.965 186.496 168.831 186.423H169.409C171.184 186.568 172.584 188.078 172.642 190.183Z" fill="white" stroke="#FE5244" stroke-width="1.23526" stroke-miterlimit="10"/>
<path d="M217.692 289.175L223.639 304.604C224.592 307.086 223.206 309.844 220.666 310.555L207.603 314.155C206.809 314.373 205.972 314.184 205.351 313.647L204.023 312.486L206.737 311.76C207.935 311.441 208.743 310.323 208.685 309.075L208.382 305.998C208.324 304.619 207.213 303.516 205.842 303.472H205.986C204.326 303.414 202.709 302.383 202.06 300.845L199.981 295.285L217.692 289.175Z" fill="#E57281"/>
<path d="M204.296 312.791L206.433 312.21C207.631 311.891 208.439 310.918 208.381 309.67L208.222 306.302C208.165 304.923 207.053 303.82 205.682 303.777C204.022 303.719 202.55 302.688 201.9 301.15L199.677 295.881" stroke="white" stroke-width="1.23526" stroke-miterlimit="10" stroke-linecap="round"/>
<path d="M211.282 312.761C212.812 312.355 213.851 310.933 213.779 309.336L213.577 305.039" stroke="white" stroke-width="1.23526" stroke-miterlimit="10" stroke-linecap="round"/>
<path d="M216.81 311.325C218.34 310.918 219.379 309.496 219.307 307.899L219.105 303.603" stroke="white" stroke-width="1.23526" stroke-miterlimit="10" stroke-linecap="round"/>
<path d="M167.361 224.844L170.854 243.22C171.446 246.355 172.543 249.389 174.087 252.176L198.192 295.924L220.32 288.26" stroke="white" stroke-width="1.23526" stroke-miterlimit="10"/>
<path d="M181.983 266.517L174.088 252.176C172.76 249.752 171.764 247.168 171.129 244.483C171.879 244.236 172.659 244.062 173.481 243.99C179.717 243.438 185.245 248.707 185.837 255.747C186.183 260.014 184.639 263.948 181.983 266.517Z" fill="white"/>
</g>
<defs>
<clipPath id="clip0_9553_43451">
<rect width="378" height="440" fill="white" transform="translate(0 0.5)"/>
</clipPath>
</defs>
</svg>
